<svg xmlns="http://www.w3.org/2000/svg" width="26" height="32" fill="none" viewBox="0 0 26 32"><g filter="url(#filter0_d)"><path fill="#000553" d="M0.756319 22.4493C-0.098001 17.8367 3.20932 15.1784 5.15514 13.9677C1.28271 10.0944 3.05335 4.91551 5.15514 3.18461C7.60071 1.17061 11.9782 0.255726 14.8364 3.71562C18.3658 7.98807 16.3076 12.2594 14.8364 13.9677C15.7856 14.7984 19.0486 16.9577 19.5271 21.3961C20.1308 26.996 1.82422 28.2151 0.756319 22.4493Z"/><path stroke="#000553" stroke-width=".509" d="M0.756319 22.4493C-0.098001 17.8367 3.20932 15.1784 5.15514 13.9677C1.28271 10.0944 3.05335 4.91551 5.15514 3.18461C7.60071 1.17061 11.9782 0.255726 14.8364 3.71562C18.3658 7.98807 16.3076 12.2594 14.8364 13.9677C15.7856 14.7984 19.0486 16.9577 19.5271 21.3961C20.1308 26.996 1.82422 28.2151 0.756319 22.4493Z"/></g><defs><filter id="filter0_d" width="25.548" height="31.456" x=".363" y=".121" color-interpolation-filters="sRGB" filterUnits="userSpaceOnUse"><feFlood flood-opacity="0" result="BackgroundImageFix"/><feColorMatrix in="SourceAlpha" values="0 0 0 0 0 0 0 0 0 0 0 0 0 0 0 0 0 0 127 0"/><feOffset dx="3.057" dy="2.038"/><feGaussianBlur stdDeviation="1.528"/><feColorMatrix values="0 0 0 0 0 0 0 0 0 0 0 0 0 0 0 0 0 0 0.25 0"/><feBlend in2="BackgroundImageFix" result="effect1_dropShadow"/><feBlend in="SourceGraphic" in2="effect1_dropShadow" result="shape"/></filter></defs></svg>